# xmcd
#
# Track frame offsets: 
#        150
#        14353
#        24019
#        44110
#        61189
#        83398
#        95861
#        117620
#        127386
#        145111
#        161266
#        171724
#        191489
#        208404
#        221240
#        235571
#        244243
#        262950
#        276303
#
# Disc length: 3851 seconds
#
# Revision: 0
# Processed by: cddbd v1.5.2PL0 Copyright (c) Steve Scherf et al.
# Submitted via: ExactAudioCopy v0.99pb5
#
DISCID=200f0913
DTITLE=Just Skiffle - Just Skiffle live
DYEAR=2003
DGENRE=Skiffle
TTITLE0=Mule Skinner Blues
TTITLE1=Orange Blossom Special
TTITLE2=Drunt'n Am Ohio Fluss
TTITLE3=P.T. Aus Arizona
TTITLE4=Kein Wind Blues
TTITLE5=Ich Steck' In Folsom Prison
TTITLE6=Blowin' In The Wind
TTITLE7=Dueling Banjos Oder So Ähnlich
TTITLE8=John Brown
TTITLE9=Hobo Song
TTITLE10=Lonesome Traveller
TTITLE11=Bevor Du Über'n Jordan Gehst
TTITLE12=It Takes A Worried man
TTITLE13=Midnight Special
TTITLE14=Roll In My Sweet Baby's Arms
TTITLE15=Some Of These Days
TTITLE16=Bei Mir Bistu Scheijn
TTITLE17=Thank You All
TTITLE18=Verbeugung Vor Johnny Cash
EXTD=
EXTT0=
EXTT1=
EXTT2=
EXTT3=
EXTT4=
EXTT5=
EXTT6=
EXTT7=
EXTT8=
EXTT9=
EXTT10=
EXTT11=
EXTT12=
EXTT13=
EXTT14=
EXTT15=
EXTT16=
EXTT17=
EXTT18=
PLAYORDER=
